<svg xmlns="http://www.w3.org/2000/svg" width="1200" height="300" viewBox="0 0 1200 300">
  <defs>
    <linearGradient id="bgGradient" x1="0%" y1="0%" x2="100%" y2="100%">
      <stop offset="0%" style="stop-color:#0a192f"/>
      <stop offset="50%" style="stop-color:#112240"/>
      <stop offset="100%" style="stop-color:#1a365d"/>
    </linearGradient>
    
    <linearGradient id="accentGradient" x1="0%" y1="0%" x2="100%" y2="0%">
      <stop offset="0%" style="stop-color:#00d4ff"/>
      <stop offset="100%" style="stop-color:#5b8dee"/>
    </linearGradient>
    
    <filter id="glow">
      <feGaussianBlur stdDeviation="3" result="coloredBlur"/>
      <feMerge>
        <feMergeNode in="coloredBlur"/>
        <feMergeNode in="SourceGraphic"/>
      </feMerge>
    </filter>
  </defs>
  
  <rect width="1200" height="300" fill="url(#bgGradient)"/>
  
  <g opacity="0.3">
    <circle cx="100" cy="50" r="3" fill="#00d4ff"/>
    <circle cx="200" cy="80" r="2" fill="#00d4ff"/>
    <circle cx="150" cy="120" r="4" fill="#5b8dee"/>
    <circle cx="300" cy="60" r="3" fill="#00d4ff"/>
    <circle cx="250" cy="150" r="2" fill="#5b8dee"/>
    <circle cx="50" cy="180" r="3" fill="#00d4ff"/>
    <circle cx="180" cy="200" r="2" fill="#5b8dee"/>
    
    <circle cx="950" cy="40" r="3" fill="#00d4ff"/>
    <circle cx="1050" cy="70" r="2" fill="#00d4ff"/>
    <circle cx="1100" cy="120" r="4" fill="#5b8dee"/>
    <circle cx="980" cy="100" r="3" fill="#00d4ff"/>
    <circle cx="1150" cy="180" r="2" fill="#5b8dee"/>
    <circle cx="1000" cy="160" r="3" fill="#00d4ff"/>
    <circle cx="1080" cy="220" r="2" fill="#5b8dee"/>
    
    <line x1="100" y1="50" x2="200" y2="80" stroke="#00d4ff" stroke-width="1" opacity="0.5"/>
    <line x1="200" y1="80" x2="150" y2="120" stroke="#00d4ff" stroke-width="1" opacity="0.5"/>
    <line x1="150" y1="120" x2="300" y2="60" stroke="#5b8dee" stroke-width="1" opacity="0.5"/>
    <line x1="300" y1="60" x2="250" y2="150" stroke="#00d4ff" stroke-width="1" opacity="0.5"/>
    <line x1="50" y1="180" x2="150" y2="120" stroke="#5b8dee" stroke-width="1" opacity="0.5"/>
    <line x1="180" y1="200" x2="250" y2="150" stroke="#00d4ff" stroke-width="1" opacity="0.5"/>
    
    <line x1="950" y1="40" x2="1050" y2="70" stroke="#00d4ff" stroke-width="1" opacity="0.5"/>
    <line x1="1050" y1="70" x2="1100" y2="120" stroke="#00d4ff" stroke-width="1" opacity="0.5"/>
    <line x1="980" y1="100" x2="1100" y2="120" stroke="#5b8dee" stroke-width="1" opacity="0.5"/>
    <line x1="1100" y1="120" x2="1150" y2="180" stroke="#00d4ff" stroke-width="1" opacity="0.5"/>
    <line x1="1000" y1="160" x2="1080" y2="220" stroke="#5b8dee" stroke-width="1" opacity="0.5"/>
    <line x1="1000" y1="160" x2="1100" y2="120" stroke="#00d4ff" stroke-width="1" opacity="0.5"/>
  </g>
  
  <g transform="translate(80, 220)" opacity="0.6">
    <rect x="0" y="0" width="12" height="40" fill="url(#accentGradient)" rx="2"/>
    <rect x="18" y="15" width="12" height="25" fill="url(#accentGradient)" rx="2"/>
    <rect x="36" y="5" width="12" height="35" fill="url(#accentGradient)" rx="2"/>
    <rect x="54" y="20" width="12" height="20" fill="url(#accentGradient)" rx="2"/>
    <rect x="72" y="10" width="12" height="30" fill="url(#accentGradient)" rx="2"/>
  </g>
  
  <g transform="translate(1020, 200)" opacity="0.6">
    <rect x="0" y="10" width="12" height="50" fill="url(#accentGradient)" rx="2"/>
    <rect x="18" y="25" width="12" height="35" fill="url(#accentGradient)" rx="2"/>
    <rect x="36" y="5" width="12" height="55" fill="url(#accentGradient)" rx="2"/>
    <rect x="54" y="30" width="12" height="30" fill="url(#accentGradient)" rx="2"/>
    <rect x="72" y="15" width="12" height="45" fill="url(#accentGradient)" rx="2"/>
  </g>
  
  <g transform="translate(250, 180)" opacity="0.4">
    <circle cx="30" cy="30" r="25" fill="none" stroke="#00d4ff" stroke-width="2"/>
    <path d="M20,35 L25,25 L32,32 L40,20" fill="none" stroke="#00d4ff" stroke-width="2"/>
  </g>
  
  <g transform="translate(900, 60)" opacity="0.4">
    <ellipse cx="25" cy="10" rx="20" ry="8" fill="none" stroke="#5b8dee" stroke-width="2"/>
    <path d="M5,10 L5,40 Q5,48 25,48 Q45,48 45,40 L45,10" fill="none" stroke="#5b8dee" stroke-width="2"/>
    <ellipse cx="25" cy="25" rx="20" ry="6" fill="none" stroke="#5b8dee" stroke-width="1.5" opacity="0.5"/>
  </g>
  
  <text x="600" y="115" text-anchor="middle" fill="white" font-family="Arial, sans-serif" font-size="48" font-weight="bold" filter="url(#glow)">
    ANA KARINA MUÑOZ
  </text>
  
  <text x="600" y="160" text-anchor="middle" fill="url(#accentGradient)" font-family="Arial, sans-serif" font-size="24" font-weight="500">
    Data Analyst | Python &amp; SQL
  </text>
  
  <line x1="400" y1="180" x2="800" y2="180" stroke="url(#accentGradient)" stroke-width="2" opacity="0.6"/>
  
  <text x="600" y="215" text-anchor="middle" fill="#8892b0" font-family="Arial, sans-serif" font-size="14">
    Pandas • Power BI • BigQuery • Azure • AWS • Machine Learning
  </text>
  
  <g transform="translate(480, 240)" fill="#8892b0">
    <text x="0" y="12" font-family="Arial, sans-serif" font-size="13">📊 github.com/akarina-data</text>
  </g>
  
  <circle cx="50" cy="50" r="30" fill="none" stroke="#00d4ff" stroke-width="1" opacity="0.2"/>
  <circle cx="50" cy="50" r="45" fill="none" stroke="#5b8dee" stroke-width="1" opacity="0.1"/>
  
  <circle cx="1150" cy="250" r="35" fill="none" stroke="#00d4ff" stroke-width="1" opacity="0.2"/>
  <circle cx="1150" cy="250" r="50" fill="none" stroke="#5b8dee" stroke-width="1" opacity="0.1"/>
</svg>
